# xmcd CD database file
# Copyright (C) 1995-1998 Ti Kan
#
# Track frame offsets:
#	150
#	9905
#	20817
#	33200
#	44607
#	56545
#	66397
#	78310
#	90725
#	100300
#	109520
#	121740
#	134395
#	143950
#	154737
#	165742
#	175322
#	184015
#	194385
#	203170
#	212082
#	222180
#	233360
#	243165
#	254175
#	265022
#	274317
#	284125
#	294415
#	304655
#
# Disc length: 4190 seconds
#
# Revision: 1
# Processed by: cddbd v1.5.1PL2 Copyright (c) Steve Scherf et al.
# Submitted via: CDex 1.30Release
#
DISCID=ba105c1e
DTITLE=Roy Orbison - 30 classic hits
DYEAR=1990
DGENRE=Blues
TTITLE0=Ooby Dooby
TTITLE1=Only The Lonely
TTITLE2=Crying
TTITLE3=Dream Baby,How Long Must I Dream?
TTITLE4=Candy Man
TTITLE5=Running Scared
TTITLE6=Tryin' To Get To You
TTITLE7=Blue Angel
TTITLE8=Go Go Go
TTITLE9=Rock House
TTITLE10=Leah
TTITLE11=I'm Hurtin'
TTITLE12=Uptown
TTITLE13=The Crowd
TTITLE14=Working For The Man
TTITLE15=Devil Doll
TTITLE16=Mean Little Mama
TTITLE17=A True Love Goodbye
TTITLE18=It's Too Late
TTITLE19=I Give Up
TTITLE20=Domino
TTITLE21=I Like Love
TTITLE22=Sweet And Easy To Love
TTITLE23=Fools Hall Of Fame
TTITLE24=The Cause Of It All
TTITLE25=You're My Baby
TTITLE26=Problem Child
TTITLE27=Chicken Hearted
TTITLE28=I Was A Fool
TTITLE29=This Kind Of Love
EXTD=YEAR: 1990 ID3G:   0
EXTT0=
EXTT1=
EXTT2=
EXTT3=
EXTT4=
EXTT5=
EXTT6=
EXTT7=
EXTT8=
EXTT9=
EXTT10=
EXTT11=
EXTT12=
EXTT13=
EXTT14=
EXTT15=
EXTT16=
EXTT17=
EXTT18=
EXTT19=
EXTT20=
EXTT21=
EXTT22=
EXTT23=
EXTT24=
EXTT25=
EXTT26=
EXTT27=
EXTT28=
EXTT29=
PLAYORDER=
